{
	"asset":{
		"generator":"Khronos glTF Blender I/O v4.4.56",
		"version":"2.0"
	},
	"extensionsUsed":[
		"KHR_materials_transmission",
		"KHR_materials_ior",
		"EXT_texture_webp"
	],
	"extensionsRequired":[
		"EXT_texture_webp"
	],
	"scene":0,
	"scenes":[
		{
			"name":"Scene",
			"nodes":[
				0
			]
		}
	],
	"nodes":[
		{
			"mesh":0,
			"name":"classroom"
		}
	],
	"materials":[
		{
			"doubleSided":true,
			"name":"Material.009",
			"pbrMetallicRoughness":{
				"baseColorFactor":[
					0.800000011920929,
					0.800000011920929,
					0.800000011920929,
					1
				],
				"metallicFactor":0,
				"roughnessFactor":0.5
			}
		},
		{
			"doubleSided":true,
			"name":"Table Structure",
			"pbrMetallicRoughness":{
				"baseColorFactor":[
					0.02419324219226837,
					0.03674113005399704,
					0.05744073539972305,
					1
				],
				"metallicFactor":0,
				"roughnessFactor":0.32283464074134827
			}
		},
		{
			"doubleSided":true,
			"name":"tableTop",
			"pbrMetallicRoughness":{
				"baseColorFactor":[
					0.24680940806865692,
					0.2573569715023041,
					0.23651069402694702,
					1
				],
				"metallicFactor":0
			}
		},
		{
			"doubleSided":true,
			"name":"tabletop black",
			"pbrMetallicRoughness":{
				"baseColorFactor":[
					0.02820577658712864,
					0.02820577658712864,
					0.02820577658712864,
					1
				],
				"metallicFactor":0,
				"roughnessFactor":0.5
			}
		},
		{
			"doubleSided":true,
			"name":"woodening",
			"pbrMetallicRoughness":{
				"baseColorFactor":[
					0.13198113441467285,
					0.05294046550989151,
					0.0061156172305345535,
					1
				],
				"metallicFactor":0,
				"roughnessFactor":0.5
			}
		},
		{
			"doubleSided":true,
			"extensions":{
				"KHR_materials_transmission":{
					"transmissionFactor":1
				},
				"KHR_materials_ior":{
					"ior":33.39999771118164
				}
			},
			"name":"light",
			"pbrMetallicRoughness":{
				"metallicFactor":0,
				"roughnessFactor":0.5
			}
		},
		{
			"doubleSided":true,
			"name":"blac",
			"pbrMetallicRoughness":{
				"baseColorFactor":[
					0,
					0,
					0,
					1
				],
				"metallicFactor":0.4094488322734833,
				"roughnessFactor":0.4173228144645691
			}
		},
		{
			"doubleSided":true,
			"name":"siver",
			"pbrMetallicRoughness":{
				"baseColorFactor":[
					0.800000011920929,
					0.800000011920929,
					0.800000011920929,
					1
				],
				"metallicFactor":0.7716535329818726,
				"roughnessFactor":0
			}
		},
		{
			"doubleSided":true,
			"name":"chalk board structure",
			"pbrMetallicRoughness":{
				"baseColorFactor":[
					0.800000011920929,
					0.800000011920929,
					0.800000011920929,
					1
				],
				"roughnessFactor":0.26377952098846436
			}
		},
		{
			"doubleSided":true,
			"name":"Material.001",
			"pbrMetallicRoughness":{
				"baseColorTexture":{
					"index":0
				},
				"metallicFactor":0,
				"roughnessFactor":0.5
			}
		},
		{
			"doubleSided":true,
			"name":"Material.007",
			"pbrMetallicRoughness":{
				"baseColorFactor":[
					0.5783578157424927,
					0.3476691246032715,
					0.1420363336801529,
					1
				],
				"metallicFactor":0,
				"roughnessFactor":0.5
			}
		},
		{
			"doubleSided":true,
			"name":"Material.008",
			"pbrMetallicRoughness":{
				"baseColorFactor":[
					0.10696528106927872,
					0.10696528106927872,
					0.10696528106927872,
					1
				],
				"roughnessFactor":0
			}
		}
	],
	"meshes":[
		{
			"name":"Plane",
			"primitives":[
				{
					"attributes":{
						"POSITION":0,
						"NORMAL":1,
						"TEXCOORD_0":2
					},
					"indices":3,
					"material":0
				},
				{
					"attributes":{
						"POSITION":4,
						"NORMAL":5,
						"TEXCOORD_0":6
					},
					"indices":7,
					"material":1
				},
				{
					"attributes":{
						"POSITION":8,
						"NORMAL":9,
						"TEXCOORD_0":10
					},
					"indices":11,
					"material":2
				},
				{
					"attributes":{
						"POSITION":12,
						"NORMAL":13,
						"TEXCOORD_0":14
					},
					"indices":15,
					"material":3
				},
				{
					"attributes":{
						"POSITION":16,
						"NORMAL":17,
						"TEXCOORD_0":18
					},
					"indices":19,
					"material":4
				},
				{
					"attributes":{
						"POSITION":20,
						"NORMAL":21,
						"TEXCOORD_0":22
					},
					"indices":23,
					"material":5
				},
				{
					"attributes":{
						"POSITION":24,
						"NORMAL":25,
						"TEXCOORD_0":26
					},
					"indices":27,
					"material":6
				},
				{
					"attributes":{
						"POSITION":28,
						"NORMAL":29,
						"TEXCOORD_0":30
					},
					"indices":31,
					"material":7
				},
				{
					"attributes":{
						"POSITION":32,
						"NORMAL":33,
						"TEXCOORD_0":34
					},
					"indices":35,
					"material":8
				},
				{
					"attributes":{
						"POSITION":36,
						"NORMAL":37,
						"TEXCOORD_0":38
					},
					"indices":39,
					"material":9
				},
				{
					"attributes":{
						"POSITION":40,
						"NORMAL":41,
						"TEXCOORD_0":42
					},
					"indices":43,
					"material":10
				},
				{
					"attributes":{
						"POSITION":44,
						"NORMAL":45,
						"TEXCOORD_0":46
					},
					"indices":47,
					"material":11
				}
			]
		}
	],
	"textures":[
		{
			"extensions":{
				"EXT_texture_webp":{
					"source":0
				}
			},
			"sampler":0
		}
	],
	"images":[
		{
			"bufferView":40,
			"mimeType":"image/webp",
			"name":"7NeiaYupX5i0VmTAh-yLanbYJ9cJt7s8YKnpTEREeioJMp4lT4dT81ndkT5IEcQ"
		}
	],
	"accessors":[
		{
			"bufferView":0,
			"componentType":5126,
			"count":52,
			"max":[
				15.590720176696777,
				5.531882286071777,
				10.423783302307129
			],
			"min":[
				-15.575400352478027,
				0.5318821668624878,
				-16.971845626831055
			],
			"type":"VEC3"
		},
		{
			"bufferView":1,
			"componentType":5126,
			"count":52,
			"type":"VEC3"
		},
		{
			"bufferView":2,
			"componentType":5126,
			"count":52,
			"type":"VEC2"
		},
		{
			"bufferView":3,
			"componentType":5123,
			"count":120,
			"type":"SCALAR"
		},
		{
			"bufferView":4,
			"componentType":5126,
			"count":3318,
			"max":[
				11.12090015411377,
				2.381019353866577,
				6.527288913726807
			],
			"min":[
				-15.382847785949707,
				0.3096020817756653,
				-8.840654373168945
			],
			"type":"VEC3"
		},
		{
			"bufferView":5,
			"componentType":5126,
			"count":3318,
			"type":"VEC3"
		},
		{
			"bufferView":6,
			"componentType":5126,
			"count":3318,
			"type":"VEC2"
		},
		{
			"bufferView":7,
			"componentType":5123,
			"count":6930,
			"type":"SCALAR"
		},
		{
			"bufferView":8,
			"componentType":5126,
			"count":168,
			"max":[
				11.10008716583252,
				2.381019353866577,
				6.506475925445557
			],
			"min":[
				-15.362035751342773,
				1.6372146606445312,
				-8.819841384887695
			],
			"type":"VEC3"
		},
		{
			"bufferView":9,
			"componentType":5126,
			"count":168,
			"type":"VEC3"
		},
		{
			"bufferView":10,
			"componentType":5126,
			"count":168,
			"type":"VEC2"
		},
		{
			"bufferView":11,
			"componentType":5123,
			"count":378,
			"type":"SCALAR"
		},
		{
			"bufferView":12,
			"componentType":5126,
			"count":780,
			"max":[
				15.631528854370117,
				2.0590531826019287,
				10.42484188079834
			],
			"min":[
				-10.032631874084473,
				1.5602827072143555,
				-8.627435684204102
			],
			"type":"VEC3"
		},
		{
			"bufferView":13,
			"componentType":5126,
			"count":780,
			"type":"VEC3"
		},
		{
			"bufferView":14,
			"componentType":5126,
			"count":780,
			"type":"VEC2"
		},
		{
			"bufferView":15,
			"componentType":5123,
			"count":1530,
			"type":"SCALAR"
		},
		{
			"bufferView":16,
			"componentType":5126,
			"count":300,
			"max":[
				15.546628952026367,
				1.636448860168457,
				10.33994197845459
			],
			"min":[
				-10.032631874084473,
				0.18240754306316376,
				-8.517887115478516
			],
			"type":"VEC3"
		},
		{
			"bufferView":17,
			"componentType":5126,
			"count":300,
			"type":"VEC3"
		},
		{
			"bufferView":18,
			"componentType":5126,
			"count":300,
			"type":"VEC2"
		},
		{
			"bufferView":19,
			"componentType":5123,
			"count":450,
			"type":"SCALAR"
		},
		{
			"bufferView":20,
			"componentType":5126,
			"count":60,
			"max":[
				12.490775108337402,
				5.518113136291504,
				8.469253540039062
			],
			"min":[
				-13.009224891662598,
				5.518110752105713,
				-6.530743598937988
			],
			"type":"VEC3"
		},
		{
			"bufferView":21,
			"componentType":5126,
			"count":60,
			"type":"VEC3"
		},
		{
			"bufferView":22,
			"componentType":5126,
			"count":60,
			"type":"VEC2"
		},
		{
			"bufferView":23,
			"componentType":5123,
			"count":90,
			"type":"SCALAR"
		},
		{
			"bufferView":24,
			"componentType":5126,
			"count":72,
			"max":[
				-13.350934982299805,
				2.0538887977600098,
				8.39596939086914
			],
			"min":[
				-14.5,
				0.6000000238418579,
				7.280693054199219
			],
			"type":"VEC3"
		},
		{
			"bufferView":25,
			"componentType":5126,
			"count":72,
			"type":"VEC3"
		},
		{
			"bufferView":26,
			"componentType":5126,
			"count":72,
			"type":"VEC2"
		},
		{
			"bufferView":27,
			"componentType":5123,
			"count":108,
			"type":"SCALAR"
		},
		{
			"bufferView":28,
			"componentType":5126,
			"count":300,
			"max":[
				8.852988243103027,
				5.174043655395508,
				8.341657638549805
			],
			"min":[
				-14.443230628967285,
				0.47502148151397705,
				-10.819985389709473
			],
			"type":"VEC3"
		},
		{
			"bufferView":29,
			"componentType":5126,
			"count":300,
			"type":"VEC3"
		},
		{
			"bufferView":30,
			"componentType":5126,
			"count":300,
			"type":"VEC2"
		},
		{
			"bufferView":31,
			"componentType":5123,
			"count":450,
			"type":"SCALAR"
		},
		{
			"bufferView":32,
			"componentType":5126,
			"count":144,
			"max":[
				9.000000953674316,
				5.25,
				-10.679986000061035
			],
			"min":[
				-8.999999046325684,
				2.1000001430511475,
				-10.9199857711792
			],
			"type":"VEC3"
		},
		{
			"bufferView":33,
			"componentType":5126,
			"count":144,
			"type":"VEC3"
		},
		{
			"bufferView":34,
			"componentType":5126,
			"count":144,
			"type":"VEC2"
		},
		{
			"bufferView":35,
			"componentType":5123,
			"count":306,
			"type":"SCALAR"
		},
		{
			"bufferView":36,
			"componentType":5126,
			"count":12,
			"max":[
				8.852988243103027,
				5.174043655395508,
				-10.814985275268555
			],
			"min":[
				-8.852987289428711,
				2.225956439971924,
				-10.814985275268555
			],
			"type":"VEC3"
		},
		{
			"bufferView":37,
			"componentType":5126,
			"count":12,
			"type":"VEC3"
		},
		{
			"bufferView":38,
			"componentType":5126,
			"count":12,
			"type":"VEC2"
		},
		{
			"bufferView":39,
			"componentType":5123,
			"count":18,
			"type":"SCALAR"
		},
		{
			"bufferView":41,
			"componentType":5126,
			"count":984,
			"max":[
				-13.630006790161133,
				5.500000476837158,
				-11
			],
			"min":[
				-15.630006790161133,
				0.500000536441803,
				-16
			],
			"type":"VEC3"
		},
		{
			"bufferView":42,
			"componentType":5126,
			"count":984,
			"type":"VEC3"
		},
		{
			"bufferView":43,
			"componentType":5126,
			"count":984,
			"type":"VEC2"
		},
		{
			"bufferView":44,
			"componentType":5123,
			"count":2676,
			"type":"SCALAR"
		},
		{
			"bufferView":45,
			"componentType":5126,
			"count":1920,
			"max":[
				9.803812026977539,
				2.4154651165008545,
				7.683349609375
			],
			"min":[
				-9.978582382202148,
				0.09623120725154877,
				-3.7393195629119873
			],
			"type":"VEC3"
		},
		{
			"bufferView":46,
			"componentType":5126,
			"count":1920,
			"type":"VEC3"
		},
		{
			"bufferView":47,
			"componentType":5126,
			"count":1920,
			"type":"VEC2"
		},
		{
			"bufferView":48,
			"componentType":5123,
			"count":3072,
			"type":"SCALAR"
		}
	],
	"bufferViews":[
		{
			"buffer":0,
			"byteLength":624,
			"byteOffset":0,
			"target":34962
		},
		{
			"buffer":0,
			"byteLength":624,
			"byteOffset":624,
			"target":34962
		},
		{
			"buffer":0,
			"byteLength":416,
			"byteOffset":1248,
			"target":34962
		},
		{
			"buffer":0,
			"byteLength":240,
			"byteOffset":1664,
			"target":34963
		},
		{
			"buffer":0,
			"byteLength":39816,
			"byteOffset":1904,
			"target":34962
		},
		{
			"buffer":0,
			"byteLength":39816,
			"byteOffset":41720,
			"target":34962
		},
		{
			"buffer":0,
			"byteLength":26544,
			"byteOffset":81536,
			"target":34962
		},
		{
			"buffer":0,
			"byteLength":13860,
			"byteOffset":108080,
			"target":34963
		},
		{
			"buffer":0,
			"byteLength":2016,
			"byteOffset":121940,
			"target":34962
		},
		{
			"buffer":0,
			"byteLength":2016,
			"byteOffset":123956,
			"target":34962
		},
		{
			"buffer":0,
			"byteLength":1344,
			"byteOffset":125972,
			"target":34962
		},
		{
			"buffer":0,
			"byteLength":756,
			"byteOffset":127316,
			"target":34963
		},
		{
			"buffer":0,
			"byteLength":9360,
			"byteOffset":128072,
			"target":34962
		},
		{
			"buffer":0,
			"byteLength":9360,
			"byteOffset":137432,
			"target":34962
		},
		{
			"buffer":0,
			"byteLength":6240,
			"byteOffset":146792,
			"target":34962
		},
		{
			"buffer":0,
			"byteLength":3060,
			"byteOffset":153032,
			"target":34963
		},
		{
			"buffer":0,
			"byteLength":3600,
			"byteOffset":156092,
			"target":34962
		},
		{
			"buffer":0,
			"byteLength":3600,
			"byteOffset":159692,
			"target":34962
		},
		{
			"buffer":0,
			"byteLength":2400,
			"byteOffset":163292,
			"target":34962
		},
		{
			"buffer":0,
			"byteLength":900,
			"byteOffset":165692,
			"target":34963
		},
		{
			"buffer":0,
			"byteLength":720,
			"byteOffset":166592,
			"target":34962
		},
		{
			"buffer":0,
			"byteLength":720,
			"byteOffset":167312,
			"target":34962
		},
		{
			"buffer":0,
			"byteLength":480,
			"byteOffset":168032,
			"target":34962
		},
		{
			"buffer":0,
			"byteLength":180,
			"byteOffset":168512,
			"target":34963
		},
		{
			"buffer":0,
			"byteLength":864,
			"byteOffset":168692,
			"target":34962
		},
		{
			"buffer":0,
			"byteLength":864,
			"byteOffset":169556,
			"target":34962
		},
		{
			"buffer":0,
			"byteLength":576,
			"byteOffset":170420,
			"target":34962
		},
		{
			"buffer":0,
			"byteLength":216,
			"byteOffset":170996,
			"target":34963
		},
		{
			"buffer":0,
			"byteLength":3600,
			"byteOffset":171212,
			"target":34962
		},
		{
			"buffer":0,
			"byteLength":3600,
			"byteOffset":174812,
			"target":34962
		},
		{
			"buffer":0,
			"byteLength":2400,
			"byteOffset":178412,
			"target":34962
		},
		{
			"buffer":0,
			"byteLength":900,
			"byteOffset":180812,
			"target":34963
		},
		{
			"buffer":0,
			"byteLength":1728,
			"byteOffset":181712,
			"target":34962
		},
		{
			"buffer":0,
			"byteLength":1728,
			"byteOffset":183440,
			"target":34962
		},
		{
			"buffer":0,
			"byteLength":1152,
			"byteOffset":185168,
			"target":34962
		},
		{
			"buffer":0,
			"byteLength":612,
			"byteOffset":186320,
			"target":34963
		},
		{
			"buffer":0,
			"byteLength":144,
			"byteOffset":186932,
			"target":34962
		},
		{
			"buffer":0,
			"byteLength":144,
			"byteOffset":187076,
			"target":34962
		},
		{
			"buffer":0,
			"byteLength":96,
			"byteOffset":187220,
			"target":34962
		},
		{
			"buffer":0,
			"byteLength":36,
			"byteOffset":187316,
			"target":34963
		},
		{
			"buffer":0,
			"byteLength":310,
			"byteOffset":187352
		},
		{
			"buffer":0,
			"byteLength":11808,
			"byteOffset":187664,
			"target":34962
		},
		{
			"buffer":0,
			"byteLength":11808,
			"byteOffset":199472,
			"target":34962
		},
		{
			"buffer":0,
			"byteLength":7872,
			"byteOffset":211280,
			"target":34962
		},
		{
			"buffer":0,
			"byteLength":5352,
			"byteOffset":219152,
			"target":34963
		},
		{
			"buffer":0,
			"byteLength":23040,
			"byteOffset":224504,
			"target":34962
		},
		{
			"buffer":0,
			"byteLength":23040,
			"byteOffset":247544,
			"target":34962
		},
		{
			"buffer":0,
			"byteLength":15360,
			"byteOffset":270584,
			"target":34962
		},
		{
			"buffer":0,
			"byteLength":6144,
			"byteOffset":285944,
			"target":34963
		}
	],
	"samplers":[
		{
			"magFilter":9729,
			"minFilter":9987
		}
	],
	"buffers":[
		{
			"byteLength":292088,
			"uri":"data:application/octet-stream;base64,"
		}
	]
}
